<svg version="1.1" id="Layer_1" xmlns="http://www.w3.org/2000/svg" xmlns:xlink="http://www.w3.org/1999/xlink" x="0px" y="0px"
	 width="100%" viewBox="0 0 2084 2084" enable-background="new 0 0 2084 2084" xml:space="preserve">
<path fill="#FFFFFF" opacity="1.000000" stroke="none" 
	d="
M1234.000000,2086.000000 
	C822.715759,2086.000000 412.431519,2086.000000 2.073630,2086.000000 
	C2.073630,1391.465576 2.073630,696.931030 2.073630,2.198281 
	C696.451355,2.198281 1390.902832,2.198281 2085.677246,2.198281 
	C2085.677246,696.666565 2085.677246,1391.333252 2085.677246,2086.000000 
	C1802.263550,2086.000000 1518.631714,2086.000000 1234.000000,2086.000000 
M693.935852,1889.467285 
	C853.372498,1889.532837 1012.809082,1889.642822 1172.245728,1889.586670 
	C1186.161255,1889.581787 1200.076416,1888.486084 1215.836914,1888.263184 
	C1392.370483,1888.283936 1568.904053,1888.305908 1745.437622,1888.324951 
	C1787.406006,1888.329590 1829.378418,1888.680664 1871.341675,1888.217285 
	C1907.332275,1887.819946 1938.306274,1874.180298 1962.943726,1848.220825 
	C1994.340576,1815.138672 2005.407837,1775.217529 1997.428467,1730.457764 
	C1986.483765,1669.063599 1974.881470,1607.786377 1963.548706,1546.461426 
	C1954.265747,1496.228760 1945.017456,1445.989502 1935.633545,1395.775757 
	C1933.392944,1383.785889 1930.673950,1371.885498 1928.294922,1358.256348 
	C1926.763672,1350.191650 1925.232300,1342.126953 1923.746582,1332.413452 
	C1916.957764,1295.205933 1910.230469,1257.987061 1903.364502,1220.793823 
	C1894.931274,1175.109741 1886.321411,1129.458252 1877.900635,1083.771973 
	C1869.660034,1039.064453 1861.631836,994.317688 1853.380249,949.612183 
	C1844.948120,903.929749 1836.314697,858.284424 1827.848389,812.608276 
	C1818.777710,763.671997 1809.794067,714.719727 1800.781982,665.772644 
	C1792.429932,620.409546 1784.107910,575.040894 1775.737061,529.681274 
	C1772.438477,511.806824 1769.043579,493.950165 1765.507935,475.100494 
	C1747.089355,472.810364 1729.085205,469.834259 1710.960693,468.533020 
	C1694.050537,467.318970 1677.012329,467.690155 1660.031006,467.713348 
	C1635.399902,467.746948 1611.069092,470.932251 1586.853271,475.226501 
	C1544.061768,482.814911 1502.858276,495.668640 1463.815186,514.592651 
	C1443.238525,524.566101 1423.874878,537.042664 1402.670898,548.692871 
	C1391.524414,556.543945 1380.111328,564.045593 1369.280396,572.310242 
	C1333.981323,599.246155 1302.539185,630.224976 1274.201538,664.373230 
	C1225.670044,722.856018 1188.606934,787.654114 1166.603027,860.661743 
	C1155.356567,897.976746 1148.134644,936.080139 1146.386353,975.052429 
	C1145.536499,993.997437 1145.051270,1013.034363 1145.926270,1031.959106 
	C1146.732300,1049.392578 1149.580444,1066.731567 1151.554810,1085.828735 
	C1152.058838,1089.434448 1152.483276,1093.053345 1153.079468,1096.643799 
	C1158.478638,1129.159546 1168.638794,1160.253296 1180.476318,1190.937012 
	C1187.982544,1210.393921 1194.194092,1230.350220 1200.243652,1251.290039 
	C1199.906982,1251.863647 1199.639038,1252.493164 1199.223877,1253.002808 
	C1161.619629,1299.157715 1123.947754,1345.257324 1086.406006,1391.463013 
	C1051.174194,1434.825562 1016.130676,1478.341187 980.911194,1521.713989 
	C932.900818,1580.838745 884.781067,1639.874756 836.747559,1698.980713 
	C791.022766,1755.245605 745.335266,1811.540771 699.668213,1867.852539 
	C694.294006,1874.479614 689.153442,1881.296143 682.832581,1889.398804 
	C687.122498,1889.398804 689.583130,1889.398804 693.935852,1889.467285 
M1406.018677,206.573303 
	C1360.135986,206.268677 1314.252808,206.030014 1268.370850,205.639908 
	C1226.844849,205.286835 1185.320923,204.596893 1143.794556,204.380646 
	C1113.870728,204.224823 1083.944336,204.602890 1052.177002,204.370728 
	C1039.532959,204.129944 1026.889771,203.767288 1014.244568,203.669006 
	C951.663330,203.182617 889.081421,202.778290 826.499939,202.318924 
	C801.860229,202.138062 777.221069,201.882706 752.581604,201.672958 
	C699.328674,201.219650 646.075867,200.748291 592.822693,200.334122 
	C558.521790,200.067352 524.220337,199.877197 489.919006,199.673615 
	C413.011292,199.217133 336.103485,198.771851 259.195709,198.328964 
	C253.865234,198.298264 248.534302,198.345078 243.203796,198.316422 
	C240.540619,198.302094 237.872253,198.055298 235.216003,198.160431 
	C223.969391,198.605438 212.593597,198.213394 201.503769,199.798065 
	C130.625610,209.926224 78.139069,278.304260 92.578850,356.419373 
	C100.717926,400.449341 108.323166,444.577850 116.212509,488.654175 
	C120.943146,515.083374 125.757889,541.497437 130.366882,569.245056 
	C130.839691,570.878357 131.312515,572.511719 131.623505,575.830322 
	C138.730133,616.701172 145.801514,657.578186 152.953384,698.441101 
	C159.990768,738.650085 167.144043,778.838745 174.183258,819.047363 
	C181.050659,858.274475 187.771423,897.527283 194.678375,936.747437 
	C202.448730,980.870300 210.411270,1024.959351 218.185120,1069.081543 
	C224.404404,1104.380493 230.385422,1139.721313 236.619827,1175.017578 
	C243.548874,1214.246582 250.741440,1253.429199 257.643219,1292.663086 
	C265.408569,1336.806274 272.904236,1380.996826 280.650208,1425.143433 
	C290.288574,1480.075317 300.054962,1534.984741 309.788757,1589.899658 
	C311.047638,1597.001953 312.442139,1604.080322 313.943726,1612.074097 
	C332.956238,1614.671143 351.258972,1618.367310 369.711975,1619.413452 
	C397.921265,1621.012695 426.196167,1621.198608 454.468414,1618.467163 
	C490.346893,1615.000732 525.406677,1608.007080 559.667297,1596.924438 
	C563.325928,1595.740845 566.730896,1593.773193 571.811157,1592.126465 
	C573.751465,1591.743164 575.781555,1591.606934 577.618958,1590.939941 
	C614.046143,1577.716431 648.432678,1560.352539 680.907837,1539.269409 
	C729.289368,1507.859863 771.245605,1469.176636 808.242859,1425.086670 
	C847.868591,1377.864380 880.088318,1326.097778 902.865356,1268.638550 
	C923.989075,1215.350342 935.803345,1160.048340 938.163452,1102.825317 
	C938.833374,1086.582642 937.657593,1070.263916 937.618286,1052.236328 
	C937.190247,1046.643311 936.734619,1041.052246 936.338806,1035.456909 
	C934.441833,1008.638489 930.066162,982.208496 922.851929,956.333313 
	C918.413147,940.412537 912.920837,924.785461 909.138184,908.211548 
	C969.787903,823.283447 1030.445801,738.361206 1091.084839,653.425537 
	C1144.579102,578.497559 1198.065918,503.564240 1251.530640,428.615295 
	C1302.292114,357.455933 1353.032715,286.281769 1403.708862,215.061676 
	C1405.276123,212.859222 1406.025757,210.075058 1406.018677,206.573303 
z"/>
<path fill="#007F9B" opacity="1.000000" stroke="none" 
	d="
M1928.174927,1359.943970 
	C1930.673950,1371.885498 1933.392944,1383.785889 1935.633545,1395.775757 
	C1945.017456,1445.989502 1954.265747,1496.228760 1963.548706,1546.461426 
	C1974.881470,1607.786377 1986.483765,1669.063599 1997.428467,1730.457764 
	C2005.407837,1775.217529 1994.340576,1815.138672 1962.943726,1848.220825 
	C1938.306274,1874.180298 1907.332275,1887.819946 1871.341675,1888.217285 
	C1829.378418,1888.680664 1787.406006,1888.329590 1745.437622,1888.324951 
	C1568.904053,1888.305908 1392.370483,1888.283936 1214.898926,1887.271484 
	C1212.690063,1880.465088 1211.301880,1874.672974 1210.167358,1868.831665 
	C1203.798340,1836.043823 1197.587036,1803.225098 1191.135864,1770.453613 
	C1184.108765,1734.756470 1176.878418,1699.099243 1169.893311,1662.760986 
	C1179.946411,1642.525635 1191.185913,1623.505249 1199.492310,1603.280396 
	C1226.357788,1537.866455 1235.645874,1469.614990 1230.505737,1399.119141 
	C1228.105347,1366.197632 1223.450439,1333.702637 1215.753174,1301.680542 
	C1211.575928,1284.302124 1205.955566,1267.270508 1200.986328,1250.082520 
	C1194.194092,1230.350220 1187.982544,1210.393921 1180.476318,1190.937012 
	C1168.638794,1160.253296 1158.478638,1129.159546 1153.079468,1096.643799 
	C1152.483276,1093.053345 1152.058838,1089.434448 1152.354736,1084.948730 
	C1158.253174,1085.502686 1163.451050,1086.655884 1168.433838,1088.417236 
	C1196.608032,1098.375366 1224.725220,1108.494629 1252.872681,1118.528564 
	C1273.514526,1125.886963 1294.191284,1133.147095 1314.820190,1140.541504 
	C1357.637573,1155.889648 1400.418213,1171.339722 1443.244141,1186.663818 
	C1465.753784,1194.718140 1488.351196,1202.526855 1510.866211,1210.566162 
	C1555.266479,1226.419434 1599.623291,1242.394043 1644.025269,1258.242798 
	C1666.853760,1266.390991 1689.779053,1274.268677 1712.592529,1282.458374 
	C1753.840332,1297.265259 1795.022705,1312.254883 1836.260132,1327.090820 
	C1866.875732,1338.105103 1897.535034,1348.997314 1928.174927,1359.943970 
z"/>
<path fill="#B4172C" opacity="1.000000" stroke="none" 
	d="
M130.534821,567.918335 
	C125.757889,541.497437 120.943146,515.083374 116.212509,488.654175 
	C108.323166,444.577850 100.717926,400.449341 92.578850,356.419373 
	C78.139069,278.304260 130.625610,209.926224 201.503769,199.798065 
	C212.593597,198.213394 223.969391,198.605438 235.216003,198.160431 
	C237.872253,198.055298 240.540619,198.302094 243.203796,198.316422 
	C248.534302,198.345078 253.865234,198.298264 259.195709,198.328964 
	C336.103485,198.771851 413.011292,199.217133 489.919006,199.673615 
	C524.220337,199.877197 558.521790,200.067352 592.822693,200.334122 
	C646.075867,200.748291 699.328674,201.219650 752.581604,201.672958 
	C777.221069,201.882706 801.860229,202.138062 826.499939,202.318924 
	C889.081421,202.778290 951.663330,203.182617 1014.244568,203.669006 
	C1026.889771,203.767288 1039.532959,204.129944 1053.116211,205.329102 
	C1054.162598,207.610916 1054.057739,208.993561 1054.408325,210.249023 
	C1061.720581,236.436691 1069.084351,262.609985 1075.978027,289.278015 
	C1067.679321,294.158752 1059.785645,298.452332 1052.011475,302.952423 
	C1012.177551,326.010223 976.359070,354.071960 947.567261,390.172974 
	C891.901733,459.970184 862.606628,540.194519 856.481140,628.851501 
	C853.699768,669.107056 855.963135,709.374207 862.432129,749.270020 
	C868.830383,788.729126 878.419800,827.435303 891.566711,865.204041 
	C896.690369,879.923401 902.438049,894.425476 907.901489,909.026550 
	C912.920837,924.785461 918.413147,940.412537 922.851929,956.333313 
	C930.066162,982.208496 934.441833,1008.638489 936.338806,1035.456909 
	C936.734619,1041.052246 937.190247,1046.643311 936.809082,1052.994385 
	C932.251160,1051.642700 928.447510,1049.624512 924.762817,1047.408447 
	C898.883789,1031.844849 873.001343,1016.286804 847.176697,1000.633362 
	C829.298401,989.796692 811.553101,978.740601 793.673157,967.906799 
	C762.737610,949.162292 731.742065,930.516907 700.774597,911.825134 
	C670.373169,893.475159 639.972839,875.123230 609.576538,856.764648 
	C579.465027,838.578125 549.329895,820.430298 519.258850,802.176819 
	C490.324249,784.613037 461.496368,766.873291 432.552460,749.324768 
	C398.782043,728.849915 364.899994,708.559143 331.135925,688.073853 
	C305.886169,672.754395 280.790436,657.181152 255.546753,641.851562 
	C224.628754,623.076050 193.685226,604.341003 162.631134,585.792053 
	C152.122787,579.515320 141.244202,573.858459 130.534821,567.918335 
z"/>
<path fill="#D41F37" opacity="1.000000" stroke="none" 
	d="
M130.450851,568.581665 
	C141.244202,573.858459 152.122787,579.515320 162.631134,585.792053 
	C193.685226,604.341003 224.628754,623.076050 255.546753,641.851562 
	C280.790436,657.181152 305.886169,672.754395 331.135925,688.073853 
	C364.899994,708.559143 398.782043,728.849915 432.552460,749.324768 
	C461.496368,766.873291 490.324249,784.613037 519.258850,802.176819 
	C549.329895,820.430298 579.465027,838.578125 609.576538,856.764648 
	C639.972839,875.123230 670.373169,893.475159 700.774597,911.825134 
	C731.742065,930.516907 762.737610,949.162292 793.673157,967.906799 
	C811.553101,978.740601 829.298401,989.796692 847.176697,1000.633362 
	C873.001343,1016.286804 898.883789,1031.844849 924.762817,1047.408447 
	C928.447510,1049.624512 932.251160,1051.642700 936.664062,1053.866211 
	C937.657593,1070.263916 938.833374,1086.582642 938.163452,1102.825317 
	C935.803345,1160.048340 923.989075,1215.350342 902.865356,1268.638550 
	C880.088318,1326.097778 847.868591,1377.864380 808.242859,1425.086670 
	C771.245605,1469.176636 729.289368,1507.859863 680.907837,1539.269409 
	C648.432678,1560.352539 614.046143,1577.716431 577.618958,1590.939941 
	C575.781555,1591.606934 573.751465,1591.743164 570.313049,1592.029541 
	C567.070251,1589.630981 564.818604,1587.555542 563.672180,1584.987061 
	C559.612122,1575.890137 555.973633,1566.606079 552.095642,1557.426636 
	C541.752502,1532.944580 531.368103,1508.479980 520.999878,1484.008545 
	C510.631714,1459.537109 500.262177,1435.066040 489.895294,1410.593994 
	C478.102570,1382.756226 466.302856,1354.921631 454.523346,1327.078247 
	C444.297607,1302.907593 434.107880,1278.721558 423.880371,1254.551636 
	C412.098663,1226.708862 400.281006,1198.881348 388.501190,1171.037842 
	C378.275269,1146.867188 368.095245,1122.677002 357.867767,1098.507080 
	C346.086151,1070.664185 334.260590,1042.839844 322.480560,1014.996338 
	C312.254517,990.825867 302.064453,966.640198 291.860168,942.460510 
	C280.363770,915.218994 268.887512,887.968872 257.368561,860.736816 
	C246.885544,835.953796 236.338287,811.197937 225.853760,786.415527 
	C214.333130,759.184082 202.867783,731.929321 191.348709,704.697205 
	C180.865601,679.914185 170.326569,655.154968 159.842758,630.372314 
	C152.207245,612.322693 144.584412,594.267517 137.052734,576.174500 
	C135.895798,573.395264 134.365860,572.685852 131.785324,574.145020 
	C131.312515,572.511719 130.839691,570.878357 130.450851,568.581665 
z"/>
<path fill="#008EA6" opacity="1.000000" stroke="none" 
	d="
M1928.234863,1359.100098 
	C1897.535034,1348.997314 1866.875732,1338.105103 1836.260132,1327.090820 
	C1795.022705,1312.254883 1753.840332,1297.265259 1712.592529,1282.458374 
	C1689.779053,1274.268677 1666.853760,1266.390991 1644.025269,1258.242798 
	C1599.623291,1242.394043 1555.266479,1226.419434 1510.866211,1210.566162 
	C1488.351196,1202.526855 1465.753784,1194.718140 1443.244141,1186.663818 
	C1400.418213,1171.339722 1357.637573,1155.889648 1314.820190,1140.541504 
	C1294.191284,1133.147095 1273.514526,1125.886963 1252.872681,1118.528564 
	C1224.725220,1108.494629 1196.608032,1098.375366 1168.433838,1088.417236 
	C1163.451050,1086.655884 1158.253174,1085.502686 1152.341797,1084.090454 
	C1149.580444,1066.731567 1146.732300,1049.392578 1145.926270,1031.959106 
	C1145.051270,1013.034363 1145.536499,993.997437 1146.386353,975.052429 
	C1148.134644,936.080139 1155.356567,897.976746 1166.603027,860.661743 
	C1188.606934,787.654114 1225.670044,722.856018 1274.201538,664.373230 
	C1302.539185,630.224976 1333.981323,599.246155 1369.280396,572.310242 
	C1380.111328,564.045593 1391.524414,556.543945 1403.424072,549.226440 
	C1406.384888,553.832703 1408.309448,558.091675 1410.844604,561.949158 
	C1435.283813,599.136108 1459.814819,636.262634 1484.341064,673.392273 
	C1510.331665,712.738831 1536.346191,752.069458 1562.348755,791.408203 
	C1587.069336,828.807251 1611.781860,866.211609 1636.508911,903.606262 
	C1662.701660,943.217102 1688.926880,982.806396 1715.101685,1022.429016 
	C1740.727417,1061.220581 1766.263062,1100.072021 1791.917847,1138.844482 
	C1833.333252,1201.436279 1874.791138,1263.999878 1916.339111,1326.503784 
	C1918.252686,1329.382568 1921.222778,1331.558838 1923.700928,1334.062256 
	C1925.232300,1342.126953 1926.763672,1350.191650 1928.234863,1359.100098 
z"/>
<path fill="#006E85" opacity="1.000000" stroke="none" 
	d="
M1923.723755,1333.237793 
	C1921.222778,1331.558838 1918.252686,1329.382568 1916.339111,1326.503784 
	C1874.791138,1263.999878 1833.333252,1201.436279 1791.917847,1138.844482 
	C1766.263062,1100.072021 1740.727417,1061.220581 1715.101685,1022.429016 
	C1688.926880,982.806396 1662.701660,943.217102 1636.508911,903.606262 
	C1611.781860,866.211609 1587.069336,828.807251 1562.348755,791.408203 
	C1536.346191,752.069458 1510.331665,712.738831 1484.341064,673.392273 
	C1459.814819,636.262634 1435.283813,599.136108 1410.844604,561.949158 
	C1408.309448,558.091675 1406.384888,553.832703 1404.070312,549.074463 
	C1423.874878,537.042664 1443.238525,524.566101 1463.815186,514.592651 
	C1502.858276,495.668640 1544.061768,482.814911 1586.853271,475.226501 
	C1611.069092,470.932251 1635.399902,467.746948 1660.031006,467.713348 
	C1677.012329,467.690155 1694.050537,467.318970 1710.960693,468.533020 
	C1729.085205,469.834259 1747.089355,472.810364 1765.507935,475.100494 
	C1769.043579,493.950165 1772.438477,511.806824 1775.737061,529.681274 
	C1784.107910,575.040894 1792.429932,620.409546 1800.781982,665.772644 
	C1809.794067,714.719727 1818.777710,763.671997 1827.848389,812.608276 
	C1836.314697,858.284424 1844.948120,903.929749 1853.380249,949.612183 
	C1861.631836,994.317688 1869.660034,1039.064453 1877.900635,1083.771973 
	C1886.321411,1129.458252 1894.931274,1175.109741 1903.364502,1220.793823 
	C1910.230469,1257.987061 1916.957764,1295.205933 1923.723755,1333.237793 
z"/>
<path fill="#152C53" opacity="1.000000" stroke="none" 
	d="
M908.519836,908.619019 
	C902.438049,894.425476 896.690369,879.923401 891.566711,865.204041 
	C878.419800,827.435303 868.830383,788.729126 862.432129,749.270020 
	C855.963135,709.374207 853.699768,669.107056 856.481140,628.851501 
	C862.606628,540.194519 891.901733,459.970184 947.567261,390.172974 
	C976.359070,354.071960 1012.177551,326.010223 1052.011475,302.952423 
	C1059.785645,298.452332 1067.679321,294.158752 1076.680420,289.076172 
	C1080.589600,287.204834 1083.318604,285.983765 1086.085938,284.856506 
	C1109.487427,275.324249 1132.561523,264.855042 1156.379639,256.510040 
	C1193.106934,243.642166 1231.001465,234.951019 1269.220337,227.473175 
	C1314.894043,218.536758 1361.088623,213.568756 1407.156494,207.562134 
	C1406.025757,210.075058 1405.276123,212.859222 1403.708862,215.061676 
	C1353.032715,286.281769 1302.292114,357.455933 1251.530640,428.615295 
	C1198.065918,503.564240 1144.579102,578.497559 1091.084839,653.425537 
	C1030.445801,738.361206 969.787903,823.283447 908.519836,908.619019 
z"/>
<path fill="#EE3959" opacity="1.000000" stroke="none" 
	d="
M131.704407,574.987671 
	C134.365860,572.685852 135.895798,573.395264 137.052734,576.174500 
	C144.584412,594.267517 152.207245,612.322693 159.842758,630.372314 
	C170.326569,655.154968 180.865601,679.914185 191.348709,704.697205 
	C202.867783,731.929321 214.333130,759.184082 225.853760,786.415527 
	C236.338287,811.197937 246.885544,835.953796 257.368561,860.736816 
	C268.887512,887.968872 280.363770,915.218994 291.860168,942.460510 
	C302.064453,966.640198 312.254517,990.825867 322.480560,1014.996338 
	C334.260590,1042.839844 346.086151,1070.664185 357.867767,1098.507080 
	C368.095245,1122.677002 378.275269,1146.867188 388.501190,1171.037842 
	C400.281006,1198.881348 412.098663,1226.708862 423.880371,1254.551636 
	C434.107880,1278.721558 444.297607,1302.907593 454.523346,1327.078247 
	C466.302856,1354.921631 478.102570,1382.756226 489.895294,1410.593994 
	C500.262177,1435.066040 510.631714,1459.537109 520.999878,1484.008545 
	C531.368103,1508.479980 541.752502,1532.944580 552.095642,1557.426636 
	C555.973633,1566.606079 559.612122,1575.890137 563.672180,1584.987061 
	C564.818604,1587.555542 567.070251,1589.630981 569.534241,1592.050903 
	C566.730896,1593.773193 563.325928,1595.740845 559.667297,1596.924438 
	C525.406677,1608.007080 490.346893,1615.000732 454.468414,1618.467163 
	C426.196167,1621.198608 397.921265,1621.012695 369.711975,1619.413452 
	C351.258972,1618.367310 332.956238,1614.671143 313.943726,1612.074097 
	C312.442139,1604.080322 311.047638,1597.001953 309.788757,1589.899658 
	C300.054962,1534.984741 290.288574,1480.075317 280.650208,1425.143433 
	C272.904236,1380.996826 265.408569,1336.806274 257.643219,1292.663086 
	C250.741440,1253.429199 243.548874,1214.246582 236.619827,1175.017578 
	C230.385422,1139.721313 224.404404,1104.380493 218.185120,1069.081543 
	C210.411270,1024.959351 202.448730,980.870300 194.678375,936.747437 
	C187.771423,897.527283 181.050659,858.274475 174.183258,819.047363 
	C167.144043,778.838745 159.990768,738.650085 152.953384,698.441101 
	C145.801514,657.578186 138.730133,616.701172 131.704407,574.987671 
z"/>
<path fill="#B69267" opacity="1.000000" stroke="none" 
	d="
M1200.614990,1250.686279 
	C1205.955566,1267.270508 1211.575928,1284.302124 1215.753174,1301.680542 
	C1223.450439,1333.702637 1228.105347,1366.197632 1230.505737,1399.119141 
	C1235.645874,1469.614990 1226.357788,1537.866455 1199.492310,1603.280396 
	C1191.185913,1623.505249 1179.946411,1642.525635 1169.339355,1663.177002 
	C1167.691650,1665.630249 1166.710571,1666.976318 1165.823486,1668.381592 
	C1144.665649,1701.899414 1118.953003,1731.322998 1087.955933,1756.163818 
	C1046.713989,1789.214966 1000.572815,1813.351562 951.302429,1831.765991 
	C876.340515,1859.782837 798.270874,1874.133789 719.221313,1884.204956 
	C710.118286,1885.364746 700.473206,1884.445068 692.043762,1889.398804 
	C689.583130,1889.398804 687.122498,1889.398804 682.832581,1889.398804 
	C689.153442,1881.296143 694.294006,1874.479614 699.668213,1867.852539 
	C745.335266,1811.540771 791.022766,1755.245605 836.747559,1698.980713 
	C884.781067,1639.874756 932.900818,1580.838745 980.911194,1521.713989 
	C1016.130676,1478.341187 1051.174194,1434.825562 1086.406006,1391.463013 
	C1123.947754,1345.257324 1161.619629,1299.157715 1199.223877,1253.002808 
	C1199.639038,1252.493164 1199.906982,1251.863647 1200.614990,1250.686279 
z"/>
<path fill="#026D7F" opacity="1.000000" stroke="none" 
	d="
M692.989807,1889.433105 
	C700.473206,1884.445068 710.118286,1885.364746 719.221313,1884.204956 
	C798.270874,1874.133789 876.340515,1859.782837 951.302429,1831.765991 
	C1000.572815,1813.351562 1046.713989,1789.214966 1087.955933,1756.163818 
	C1118.953003,1731.322998 1144.665649,1701.899414 1165.823486,1668.381592 
	C1166.710571,1666.976318 1167.691650,1665.630249 1169.182861,1663.840576 
	C1176.878418,1699.099243 1184.108765,1734.756470 1191.135864,1770.453613 
	C1197.587036,1803.225098 1203.798340,1836.043823 1210.167358,1868.831665 
	C1211.301880,1874.672974 1212.690063,1880.465088 1213.976440,1887.088501 
	C1200.076416,1888.486084 1186.161255,1889.581787 1172.245728,1889.586670 
	C1012.809082,1889.642822 853.372498,1889.532837 692.989807,1889.433105 
z"/>
<path fill="#900D20" opacity="1.000000" stroke="none" 
	d="
M1406.587646,207.067719 
	C1361.088623,213.568756 1314.894043,218.536758 1269.220337,227.473175 
	C1231.001465,234.951019 1193.106934,243.642166 1156.379639,256.510040 
	C1132.561523,264.855042 1109.487427,275.324249 1086.085938,284.856506 
	C1083.318604,285.983765 1080.589600,287.204834 1077.140381,288.584229 
	C1069.084351,262.609985 1061.720581,236.436691 1054.408325,210.249023 
	C1054.057739,208.993561 1054.162598,207.610916 1054.037354,205.515167 
	C1083.944336,204.602890 1113.870728,204.224823 1143.794556,204.380646 
	C1185.320923,204.596893 1226.844849,205.286835 1268.370850,205.639908 
	C1314.252808,206.030014 1360.135986,206.268677 1406.587646,207.067719 
z"/>
</svg>